<svg xmlns="http://www.w3.org/2000/svg" width="128" height="128" viewBox="0 0 128 128" role="img" aria-labelledby="title">
<title id="title">Construtor(a)</title>
<defs>
  <radialGradient id="face" cx="36%" cy="28%" r="78%">
    <stop offset="0" stop-color="#26374a"/>
    <stop offset="0.58" stop-color="#111b27"/>
    <stop offset="1" stop-color="#090f17"/>
  </radialGradient>
  <linearGradient id="ring" x1="22" y1="18" x2="108" y2="112">
    <stop offset="0" stop-color="#A371F7"/>
    <stop offset="1" stop-color="#8957E5"/>
  </linearGradient>
  <filter id="shadow" x="-25%" y="-25%" width="150%" height="150%">
    <feDropShadow dx="0" dy="5" stdDeviation="4" flood-color="#000" flood-opacity=".38"/>
  </filter>
</defs>
<g filter="url(#shadow)">
  <circle cx="64" cy="64" r="57" fill="#070c12" opacity=".5"/>
  <circle cx="64" cy="64" r="54" fill="url(#face)" stroke="url(#ring)" stroke-width="5"/>
  <circle cx="64" cy="64" r="46.5" fill="none" stroke="#ffffff" stroke-opacity=".09" stroke-width="1.5"/>
  <path d="M29 42c10-17 27-27 47-27" fill="none" stroke="#fff" stroke-opacity=".12" stroke-width="3" stroke-linecap="round"/>
  <g fill="none" stroke="#f8fbff" stroke-width="4" stroke-linecap="round" stroke-linejoin="round"><path d="M31 62h29v17H31zM62 62h35v17H62zM42 43h34v17H42zM78 43h20v17H78zM31 81h40v17H31zM73 81h24v17H73z" fill="#b7793b" stroke="#f4d0a5"/><path d="M31 62h66M42 43h56M31 81h66"/></g>
</g>
</svg>