<svg width="260" height="72" viewBox="0 0 260 72" fill="none" xmlns="http://www.w3.org/2000/svg">
<mask id="mask0_299_172" style="mask-type:luminance" maskUnits="userSpaceOnUse" x="5" y="51" width="14" height="14">
<path d="M5.58698 51.3773H18.7552V64.5483H5.58698V51.3773Z" fill="white"/>
</mask>
<g mask="url(#mask0_299_172)">
<path d="M8.81175 51.3773H15.3855C15.5971 51.3773 15.8064 51.398 16.0158 51.4394C16.2228 51.4808 16.4252 51.5407 16.6207 51.6235C16.8162 51.704 17.0025 51.8029 17.1773 51.9203C17.3544 52.0376 17.5177 52.1733 17.6672 52.3229C17.8167 52.4724 17.9502 52.6358 18.0675 52.8106C18.1848 52.9877 18.2837 53.1718 18.3665 53.3697C18.447 53.5652 18.5068 53.7654 18.5482 53.9747C18.5896 54.1818 18.6103 54.3911 18.6103 54.6028V61.1779C18.6103 61.3896 18.5896 61.5989 18.5482 61.8083C18.5068 62.0154 18.447 62.2178 18.3665 62.4134C18.2837 62.6089 18.1848 62.793 18.0675 62.9701C17.9502 63.1473 17.8167 63.3083 17.6672 63.4578C17.5177 63.6097 17.3544 63.7431 17.1773 63.8604C17.0025 63.9778 16.8162 64.0767 16.6207 64.1572C16.4252 64.24 16.2228 64.2999 16.0158 64.3413C15.8064 64.3827 15.5971 64.4034 15.3855 64.4034H8.81175C8.60014 64.4034 8.39083 64.3827 8.18382 64.3413C7.97451 64.2999 7.7744 64.24 7.57888 64.1572C7.38337 64.0767 7.19706 63.9778 7.01995 63.8604C6.84514 63.7431 6.68184 63.6097 6.53233 63.4578C6.38282 63.3083 6.24941 63.1473 6.12981 62.9701C6.0125 62.793 5.91359 62.6089 5.83309 62.4134C5.75258 62.2178 5.69048 62.0154 5.64908 61.8083C5.60768 61.5989 5.58698 61.3896 5.58698 61.1779V54.6028C5.58698 54.3911 5.60768 54.1818 5.64908 53.9747C5.69048 53.7654 5.75258 53.5652 5.83309 53.3697C5.91359 53.1718 6.0125 52.9877 6.12981 52.8106C6.24941 52.6358 6.38282 52.4724 6.53233 52.3229C6.68184 52.1733 6.84514 52.0376 7.01995 51.9203C7.19706 51.8029 7.38337 51.704 7.57888 51.6235C7.7744 51.5407 7.97451 51.4808 8.18382 51.4394C8.39083 51.398 8.60014 51.3773 8.81175 51.3773Z" fill="white"/>
</g>
<mask id="mask1_299_172" style="mask-type:luminance" maskUnits="userSpaceOnUse" x="5" y="37" width="14" height="14">
<path d="M5.58698 37.0376H18.7552V50.2063H5.58698V37.0376Z" fill="white"/>
</mask>
<g mask="url(#mask1_299_172)">
<path d="M8.81175 37.0376H15.3855C15.5971 37.0376 15.8064 37.0583 16.0158 37.0997C16.2228 37.1411 16.4252 37.2009 16.6207 37.2814C16.8162 37.3643 17.0025 37.4632 17.1773 37.5805C17.3544 37.6978 17.5177 37.8313 17.6672 37.9808C17.8167 38.1304 17.9502 38.2937 18.0675 38.4708C18.1848 38.6457 18.2837 38.832 18.3665 39.0276C18.447 39.2231 18.5068 39.4256 18.5482 39.6327C18.5896 39.842 18.6103 40.0514 18.6103 40.263V46.8382C18.6103 47.0498 18.5896 47.2592 18.5482 47.4662C18.5068 47.6756 18.447 47.8758 18.3665 48.0713C18.2837 48.2669 18.1848 48.4532 18.0675 48.6304C17.9502 48.8052 17.8167 48.9685 17.6672 49.1181C17.5177 49.2676 17.3544 49.4011 17.1773 49.5207C17.0025 49.638 16.8162 49.737 16.6207 49.8175C16.4252 49.898 16.2228 49.9601 16.0158 50.0015C15.8064 50.0429 15.5971 50.0636 15.3855 50.0636H8.81175C8.60014 50.0636 8.39083 50.0429 8.18382 50.0015C7.97451 49.9601 7.7744 49.898 7.57888 49.8175C7.38337 49.737 7.19706 49.638 7.01995 49.5207C6.84514 49.4011 6.68184 49.2676 6.53233 49.1181C6.38282 48.9685 6.24941 48.8052 6.12981 48.6304C6.0125 48.4532 5.91359 48.2669 5.83309 48.0713C5.75258 47.8758 5.69048 47.6756 5.64908 47.4662C5.60768 47.2592 5.58698 47.0498 5.58698 46.8382V40.263C5.58698 40.0514 5.60768 39.842 5.64908 39.6327C5.69048 39.4256 5.75258 39.2231 5.83309 39.0276C5.91359 38.832 6.0125 38.6457 6.12981 38.4708C6.24941 38.2937 6.38282 38.1304 6.53233 37.9808C6.68184 37.8313 6.84514 37.6978 7.01995 37.5805C7.19706 37.4632 7.38337 37.3643 7.57888 37.2814C7.7744 37.2009 7.97451 37.1411 8.18382 37.0997C8.39083 37.0583 8.60014 37.0376 8.81175 37.0376Z" fill="white"/>
</g>
<mask id="mask2_299_172" style="mask-type:luminance" maskUnits="userSpaceOnUse" x="5" y="22" width="14" height="14">
<path d="M5.58698 22.7531H18.7552V35.9241H5.58698V22.7531Z" fill="white"/>
</mask>
<g mask="url(#mask2_299_172)">
<path d="M8.81175 22.7531H15.3855C15.5971 22.7531 15.8064 22.7738 16.0158 22.8152C16.2228 22.8566 16.4252 22.9164 16.6207 22.9992C16.8162 23.0798 17.0025 23.1787 17.1773 23.296C17.3544 23.4134 17.5177 23.5468 17.6672 23.6986C17.8167 23.8482 17.9502 24.0092 18.0675 24.1864C18.1848 24.3635 18.2837 24.5476 18.3665 24.7431C18.447 24.941 18.5068 25.1411 18.5482 25.3505C18.5896 25.5575 18.6103 25.7669 18.6103 25.9785V32.5537C18.6103 32.7654 18.5896 32.9747 18.5482 33.1818C18.5068 33.3911 18.447 33.5913 18.3665 33.7891C18.2837 33.9847 18.1848 34.1687 18.0675 34.3459C17.9502 34.5207 17.8167 34.6841 17.6672 34.8336C17.5177 34.9854 17.3544 35.1189 17.1773 35.2362C17.0025 35.3535 16.8162 35.4525 16.6207 35.533C16.4252 35.6158 16.2228 35.6756 16.0158 35.717C15.8064 35.7585 15.5971 35.7792 15.3855 35.7792H8.81175C8.60014 35.7792 8.39083 35.7585 8.18382 35.717C7.97451 35.6756 7.7744 35.6158 7.57888 35.533C7.38337 35.4525 7.19706 35.3535 7.01995 35.2362C6.84514 35.1189 6.68184 34.9854 6.53233 34.8336C6.38282 34.6841 6.24941 34.5207 6.12981 34.3459C6.0125 34.1687 5.91359 33.9847 5.83309 33.7891C5.75258 33.5913 5.69048 33.3911 5.64908 33.1818C5.60768 32.9747 5.58698 32.7654 5.58698 32.5537V25.9785C5.58698 25.7669 5.60768 25.5575 5.64908 25.3505C5.69048 25.1411 5.75258 24.941 5.83309 24.7431C5.91359 24.5476 6.0125 24.3635 6.12981 24.1864C6.24941 24.0092 6.38282 23.8482 6.53233 23.6986C6.68184 23.5468 6.84514 23.4134 7.01995 23.296C7.19706 23.1787 7.38337 23.0798 7.57888 22.9992C7.7744 22.9164 7.97451 22.8566 8.18382 22.8152C8.39083 22.7738 8.60014 22.7531 8.81175 22.7531Z" fill="white"/>
</g>
<mask id="mask3_299_172" style="mask-type:luminance" maskUnits="userSpaceOnUse" x="20" y="37" width="14" height="14">
<path d="M20.3538 37.0376H33.522V50.2063H20.3538V37.0376Z" fill="white"/>
</mask>
<g mask="url(#mask3_299_172)">
<path d="M23.5786 37.0376H30.1524C30.364 37.0376 30.5733 37.0583 30.7826 37.0997C30.9896 37.1411 31.192 37.2009 31.3875 37.2814C31.583 37.3643 31.7694 37.4632 31.9442 37.5805C32.1213 37.6978 32.2846 37.8313 32.4341 37.9808C32.5836 38.1304 32.717 38.2937 32.8343 38.4708C32.9516 38.6457 33.0505 38.832 33.1333 39.0276C33.2138 39.2231 33.2759 39.4256 33.315 39.6327C33.3564 39.842 33.3771 40.0514 33.3771 40.263V46.8382C33.3771 47.0498 33.3564 47.2592 33.315 47.4662C33.2759 47.6756 33.2138 47.8758 33.1333 48.0713C33.0505 48.2669 32.9516 48.4532 32.8343 48.6304C32.717 48.8052 32.5836 48.9685 32.4341 49.1181C32.2846 49.2676 32.1213 49.4011 31.9442 49.5207C31.7694 49.638 31.583 49.737 31.3875 49.8175C31.192 49.898 30.9896 49.9601 30.7826 50.0015C30.5733 50.0429 30.364 50.0636 30.1524 50.0636H23.5786C23.367 50.0636 23.1577 50.0429 22.9507 50.0015C22.7437 49.9601 22.5412 49.898 22.3457 49.8175C22.1502 49.737 21.9639 49.638 21.7868 49.5207C21.612 49.4011 21.4487 49.2676 21.2992 49.1181C21.1497 48.9685 21.0163 48.8052 20.8967 48.6304C20.7793 48.4532 20.6804 48.2669 20.5999 48.0713C20.5194 47.8758 20.4573 47.6756 20.4159 47.4662C20.3745 47.2592 20.3538 47.0498 20.3538 46.8382V40.263C20.3538 40.0514 20.3745 39.842 20.4159 39.6327C20.4573 39.4256 20.5194 39.2231 20.5999 39.0276C20.6804 38.832 20.7793 38.6457 20.8967 38.4708C21.0163 38.2937 21.1497 38.1304 21.2992 37.9808C21.4487 37.8313 21.612 37.6978 21.7868 37.5805C21.9639 37.4632 22.1502 37.3643 22.3457 37.2814C22.5412 37.2009 22.7437 37.1411 22.9507 37.0997C23.1577 37.0583 23.367 37.0376 23.5786 37.0376Z" fill="white"/>
</g>
<mask id="mask4_299_172" style="mask-type:luminance" maskUnits="userSpaceOnUse" x="20" y="22" width="14" height="14">
<path d="M20.3538 22.7531H33.522V35.9241H20.3538V22.7531Z" fill="white"/>
</mask>
<g mask="url(#mask4_299_172)">
<path d="M23.5786 22.7531H30.1524C30.364 22.7531 30.5733 22.7738 30.7826 22.8152C30.9896 22.8566 31.192 22.9164 31.3875 22.9992C31.583 23.0798 31.7694 23.1787 31.9442 23.296C32.1213 23.4134 32.2846 23.5468 32.4341 23.6986C32.5836 23.8482 32.717 24.0092 32.8343 24.1864C32.9516 24.3635 33.0505 24.5476 33.1333 24.7431C33.2138 24.941 33.2759 25.1411 33.315 25.3505C33.3564 25.5575 33.3771 25.7669 33.3771 25.9785V32.5537C33.3771 32.7654 33.3564 32.9747 33.315 33.1818C33.2759 33.3911 33.2138 33.5913 33.1333 33.7891C33.0505 33.9847 32.9516 34.1687 32.8343 34.3459C32.717 34.5207 32.5836 34.6841 32.4341 34.8336C32.2846 34.9854 32.1213 35.1189 31.9442 35.2362C31.7694 35.3535 31.583 35.4525 31.3875 35.533C31.192 35.6158 30.9896 35.6756 30.7826 35.717C30.5733 35.7585 30.364 35.7792 30.1524 35.7792H23.5786C23.367 35.7792 23.1577 35.7585 22.9507 35.717C22.7437 35.6756 22.5412 35.6158 22.3457 35.533C22.1502 35.4525 21.9639 35.3535 21.7868 35.2362C21.612 35.1189 21.4487 34.9854 21.2992 34.8336C21.1497 34.6841 21.0163 34.5207 20.8967 34.3459C20.7793 34.1687 20.6804 33.9847 20.5999 33.7891C20.5194 33.5913 20.4573 33.3911 20.4159 33.1818C20.3745 32.9747 20.3538 32.7654 20.3538 32.5537V25.9785C20.3538 25.7669 20.3745 25.5575 20.4159 25.3505C20.4573 25.1411 20.5194 24.941 20.5999 24.7431C20.6804 24.5476 20.7793 24.3635 20.8967 24.1864C21.0163 24.0092 21.1497 23.8482 21.2992 23.6986C21.4487 23.5468 21.612 23.4134 21.7868 23.296C21.9639 23.1787 22.1502 23.0798 22.3457 22.9992C22.5412 22.9164 22.7437 22.8566 22.9507 22.8152C23.1577 22.7738 23.367 22.7531 23.5786 22.7531Z" fill="white"/>
</g>
<mask id="mask5_299_172" style="mask-type:luminance" maskUnits="userSpaceOnUse" x="20" y="51" width="14" height="14">
<path d="M20.3538 51.3819H33.522V64.5529H20.3538V51.3819Z" fill="white"/>
</mask>
<g mask="url(#mask5_299_172)">
<path d="M23.5786 51.3819H30.1524C30.364 51.3819 30.5733 51.4026 30.7826 51.444C30.9896 51.4854 31.192 51.5452 31.3875 51.6281C31.583 51.7086 31.7694 51.8075 31.9442 51.9248C32.1213 52.0422 32.2846 52.1756 32.4341 52.3274C32.5836 52.477 32.717 52.638 32.8343 52.8152C32.9516 52.9923 33.0505 53.1764 33.1333 53.3719C33.2138 53.5675 33.2759 53.7699 33.315 53.977C33.3564 54.1863 33.3771 54.3957 33.3771 54.6074V61.1825C33.3771 61.3942 33.3564 61.6035 33.315 61.8106C33.2759 62.0199 33.2138 62.2201 33.1333 62.4156C33.0505 62.6135 32.9516 62.7975 32.8343 62.9747C32.717 63.1495 32.5836 63.3129 32.4341 63.4624C32.2846 63.612 32.1213 63.7477 31.9442 63.865C31.7694 63.9824 31.583 64.0813 31.3875 64.1618C31.192 64.2446 30.9896 64.3044 30.7826 64.3459C30.5733 64.3873 30.364 64.408 30.1524 64.408H23.5786C23.367 64.408 23.1577 64.3873 22.9507 64.3459C22.7437 64.3044 22.5412 64.2446 22.3457 64.1618C22.1502 64.0813 21.9639 63.9824 21.7868 63.865C21.612 63.7477 21.4487 63.612 21.2992 63.4624C21.1497 63.3129 21.0163 63.1495 20.8967 62.9747C20.7793 62.7975 20.6804 62.6135 20.5999 62.4156C20.5194 62.2201 20.4573 62.0199 20.4159 61.8106C20.3745 61.6035 20.3538 61.3942 20.3538 61.1825V54.6074C20.3538 54.3957 20.3745 54.1863 20.4159 53.977C20.4573 53.7699 20.5194 53.5675 20.5999 53.3719C20.6804 53.1764 20.7793 52.9923 20.8967 52.8152C21.0163 52.638 21.1497 52.477 21.2992 52.3274C21.4487 52.1756 21.612 52.0422 21.7868 51.9248C21.9639 51.8075 22.1502 51.7086 22.3457 51.6281C22.5412 51.5452 22.7437 51.4854 22.9507 51.444C23.1577 51.4026 23.367 51.3819 23.5786 51.3819Z" fill="white"/>
</g>
<mask id="mask6_299_172" style="mask-type:luminance" maskUnits="userSpaceOnUse" x="20" y="8" width="14" height="14">
<path d="M20.3538 8.40875H33.522V21.5798H20.3538V8.40875Z" fill="white"/>
</mask>
<g mask="url(#mask6_299_172)">
<path d="M23.5786 8.40875H30.1524C30.364 8.40875 30.5733 8.42946 30.7826 8.47087C30.9896 8.51228 31.192 8.5721 31.3875 8.65262C31.583 8.73544 31.7694 8.83437 31.9442 8.9517C32.1213 9.06903 32.2846 9.20246 32.4341 9.352C32.5836 9.50154 32.717 9.66489 32.8343 9.84203C32.9516 10.0169 33.0505 10.2032 33.1333 10.3988C33.2138 10.5943 33.2759 10.7968 33.315 11.0038C33.3564 11.2132 33.3771 11.4226 33.3771 11.6342V18.2094C33.3771 18.421 33.3564 18.6304 33.315 18.8374C33.2759 19.0468 33.2138 19.2469 33.1333 19.4425C33.0505 19.638 32.9516 19.8244 32.8343 20.0015C32.717 20.1764 32.5836 20.3397 32.4341 20.4893C32.2846 20.6388 32.1213 20.7723 31.9442 20.8919C31.7694 21.0092 31.583 21.1081 31.3875 21.1887C31.192 21.2692 30.9896 21.3313 30.7826 21.3727C30.5733 21.4141 30.364 21.4348 30.1524 21.4348H23.5786C23.367 21.4348 23.1577 21.4141 22.9507 21.3727C22.7437 21.3313 22.5412 21.2692 22.3457 21.1887C22.1502 21.1081 21.9639 21.0092 21.7868 20.8919C21.612 20.7723 21.4487 20.6388 21.2992 20.4893C21.1497 20.3397 21.0163 20.1764 20.8967 20.0015C20.7793 19.8244 20.6804 19.638 20.5999 19.4425C20.5194 19.2469 20.4573 19.0468 20.4159 18.8374C20.3745 18.6304 20.3538 18.421 20.3538 18.2094V11.6342C20.3538 11.4226 20.3745 11.2132 20.4159 11.0038C20.4573 10.7968 20.5194 10.5943 20.5999 10.3988C20.6804 10.2032 20.7793 10.0169 20.8967 9.84203C21.0163 9.66489 21.1497 9.50154 21.2992 9.352C21.4487 9.20246 21.612 9.06903 21.7868 8.9517C21.9639 8.83437 22.1502 8.73544 22.3457 8.65262C22.5412 8.5721 22.7437 8.51228 22.9507 8.47087C23.1577 8.42946 23.367 8.40875 23.5786 8.40875Z" fill="white"/>
</g>
<mask id="mask7_299_172" style="mask-type:luminance" maskUnits="userSpaceOnUse" x="35" y="37" width="14" height="14">
<path d="M35.1345 37.0376H48.2958V50.2063H35.1345V37.0376Z" fill="white"/>
</mask>
<g mask="url(#mask7_299_172)">
<path d="M38.3592 37.0376H44.933C45.1446 37.0376 45.3539 37.0583 45.5632 37.0997C45.7702 37.1411 45.9727 37.2009 46.1682 37.2814C46.3637 37.3643 46.55 37.4632 46.7248 37.5805C46.9019 37.6978 47.0652 37.8313 47.2147 37.9808C47.3642 38.1304 47.4976 38.2937 47.6149 38.4708C47.7323 38.6457 47.8312 38.832 47.914 39.0276C47.9945 39.2231 48.0566 39.4256 48.098 39.6327C48.1371 39.842 48.1578 40.0514 48.1578 40.263V46.8382C48.1578 47.0498 48.1371 47.2592 48.098 47.4662C48.0566 47.6756 47.9945 47.8758 47.914 48.0713C47.8312 48.2669 47.7323 48.4532 47.6149 48.6304C47.4976 48.8052 47.3642 48.9685 47.2147 49.1181C47.0652 49.2676 46.9019 49.4011 46.7248 49.5207C46.55 49.638 46.3637 49.737 46.1682 49.8175C45.9727 49.898 45.7702 49.9601 45.5632 50.0015C45.3539 50.0429 45.1446 50.0636 44.933 50.0636H38.3592C38.1476 50.0636 37.9383 50.0429 37.7313 50.0015C37.5243 49.9601 37.3219 49.898 37.1264 49.8175C36.9309 49.737 36.7445 49.638 36.5674 49.5207C36.3926 49.4011 36.2293 49.2676 36.0798 49.1181C35.9303 48.9685 35.7969 48.8052 35.6796 48.6304C35.56 48.4532 35.4611 48.2669 35.3806 48.0713C35.3001 47.8758 35.238 47.6756 35.1966 47.4662C35.1552 47.2592 35.1345 47.0498 35.1345 46.8382V40.263C35.1345 40.0514 35.1552 39.842 35.1966 39.6327C35.238 39.4256 35.3001 39.2231 35.3806 39.0276C35.4611 38.832 35.56 38.6457 35.6796 38.4708C35.7969 38.2937 35.9303 38.1304 36.0798 37.9808C36.2293 37.8313 36.3926 37.6978 36.5674 37.5805C36.7445 37.4632 36.9309 37.3643 37.1264 37.2814C37.3219 37.2009 37.5243 37.1411 37.7313 37.0997C37.9383 37.0583 38.1476 37.0376 38.3592 37.0376Z" fill="white"/>
</g>
<mask id="mask8_299_172" style="mask-type:luminance" maskUnits="userSpaceOnUse" x="35" y="8" width="14" height="14">
<path d="M35.1345 8.40875H48.2958V21.5798H35.1345V8.40875Z" fill="white"/>
</mask>
<g mask="url(#mask8_299_172)">
<path d="M38.3592 8.40875H44.933C45.1446 8.40875 45.3539 8.42946 45.5632 8.47087C45.7702 8.51228 45.9727 8.5721 46.1682 8.65262C46.3637 8.73544 46.55 8.83437 46.7248 8.9517C46.9019 9.06903 47.0652 9.20246 47.2147 9.352C47.3642 9.50154 47.4976 9.66489 47.6149 9.84203C47.7323 10.0169 47.8312 10.2032 47.914 10.3988C47.9945 10.5943 48.0566 10.7968 48.098 11.0038C48.1371 11.2132 48.1578 11.4226 48.1578 11.6342V18.2094C48.1578 18.421 48.1371 18.6304 48.098 18.8374C48.0566 19.0468 47.9945 19.2469 47.914 19.4425C47.8312 19.638 47.7323 19.8244 47.6149 20.0015C47.4976 20.1764 47.3642 20.3397 47.2147 20.4893C47.0652 20.6388 46.9019 20.7723 46.7248 20.8919C46.55 21.0092 46.3637 21.1081 46.1682 21.1887C45.9727 21.2692 45.7702 21.3313 45.5632 21.3727C45.3539 21.4141 45.1446 21.4348 44.933 21.4348H38.3592C38.1476 21.4348 37.9383 21.4141 37.7313 21.3727C37.5243 21.3313 37.3219 21.2692 37.1264 21.1887C36.9309 21.1081 36.7445 21.0092 36.5674 20.8919C36.3926 20.7723 36.2293 20.6388 36.0798 20.4893C35.9303 20.3397 35.7969 20.1764 35.6796 20.0015C35.56 19.8244 35.4611 19.638 35.3806 19.4425C35.3001 19.2469 35.238 19.0468 35.1966 18.8374C35.1552 18.6304 35.1345 18.421 35.1345 18.2094V11.6342C35.1345 11.4226 35.1552 11.2132 35.1966 11.0038C35.238 10.7968 35.3001 10.5943 35.3806 10.3988C35.4611 10.2032 35.56 10.0169 35.6796 9.84203C35.7969 9.66489 35.9303 9.50154 36.0798 9.352C36.2293 9.20246 36.3926 9.06903 36.5674 8.9517C36.7445 8.83437 36.9309 8.73544 37.1264 8.65262C37.3219 8.5721 37.5243 8.51228 37.7313 8.47087C37.9383 8.42946 38.1476 8.40875 38.3592 8.40875Z" fill="white"/>
</g>
<mask id="mask9_299_172" style="mask-type:luminance" maskUnits="userSpaceOnUse" x="5" y="8" width="14" height="14">
<path d="M5.51111 8.40875H18.7368V21.4325H5.51111V8.40875Z" fill="white"/>
</mask>
<g mask="url(#mask9_299_172)">
<mask id="mask10_299_172" style="mask-type:luminance" maskUnits="userSpaceOnUse" x="5" y="8" width="14" height="14">
<path d="M12.0987 8.40875C8.46217 8.40875 5.51111 11.3236 5.51111 14.9195C5.51111 18.5153 8.46217 21.4325 12.0987 21.4325C15.7375 21.4325 18.6885 18.5153 18.6885 14.9195C18.6885 11.3236 15.7375 8.40875 12.0987 8.40875Z" fill="white"/>
</mask>
<g mask="url(#mask10_299_172)">
<mask id="mask11_299_172" style="mask-type:luminance" maskUnits="userSpaceOnUse" x="5" y="8" width="14" height="14">
<path d="M18.8541 8.24542H5.31097V21.7914H18.8541V8.24542Z" fill="white"/>
</mask>
<g mask="url(#mask11_299_172)">
<mask id="mask12_299_172" style="mask-type:luminance" maskUnits="userSpaceOnUse" x="5" y="8" width="14" height="14">
<path d="M5.51111 8.40875H18.7368V21.4325H5.51111V8.40875Z" fill="white"/>
</mask>
<g mask="url(#mask12_299_172)">
<mask id="mask13_299_172" style="mask-type:luminance" maskUnits="userSpaceOnUse" x="5" y="8" width="14" height="14">
<path d="M12.0987 8.40875C8.46217 8.40875 5.51111 11.3236 5.51111 14.9195C5.51111 18.5153 8.46217 21.4325 12.0987 21.4325C15.7375 21.4325 18.6885 18.5153 18.6885 14.9195C18.6885 11.3236 15.7375 8.40875 12.0987 8.40875Z" fill="white"/>
</mask>
<g mask="url(#mask13_299_172)">
<path d="M5.51111 8.40875H18.6862V21.4325H5.51111V8.40875Z" fill="white"/>
</g>
</g>
</g>
</g>
</g>
<mask id="mask14_299_172" style="mask-type:luminance" maskUnits="userSpaceOnUse" x="58" y="21" width="185" height="33">
<path d="M242.022 21.2025H58.8947V53.0061H242.022V21.2025Z" fill="white"/>
</mask>
<g mask="url(#mask14_299_172)">
<path d="M63.0773 21.872V44.1051H60.6024V21.872H63.0773Z" fill="white"/>
<path d="M67.8089 44.1051H65.5916V21.872H68.729L73.8721 37.9487V21.872H76.0618V44.1051H73.4949L67.8089 26.1327V44.1051Z" fill="white"/>
<mask id="mask15_299_172" style="mask-type:luminance" maskUnits="userSpaceOnUse" x="77" y="21" width="12" height="24">
<path d="M77.7374 21.214H88.3364V44.7607H77.7374V21.214Z" fill="white"/>
</mask>
<g mask="url(#mask15_299_172)">
<path d="M83.2705 21.6512C84.9634 21.6512 86.2101 22.155 87.0151 23.1604C87.8248 24.168 88.2296 25.5162 88.2296 27.2094V27.8168H85.8742V27.0806C85.8742 26.0683 85.6718 25.2861 85.267 24.734C84.8668 24.1818 84.2228 23.9058 83.3349 23.9058C82.4448 23.9058 81.7984 24.1818 81.3936 24.734C80.9934 25.2861 80.7956 26.0591 80.7956 27.053C80.7956 27.8766 80.9796 28.5967 81.3476 29.2156C81.7202 29.8298 82.1802 30.3981 82.7277 30.918C83.2797 31.4334 83.8777 31.9395 84.5218 32.4364C85.1704 32.9334 85.7684 33.4809 86.3159 34.0745C86.8679 34.6634 87.3279 35.3352 87.6959 36.0898C88.0686 36.8398 88.2572 37.7324 88.2572 38.7677C88.2572 40.461 87.8478 41.8114 87.0335 42.8168C86.217 43.8245 84.9542 44.326 83.2429 44.326C81.5247 44.326 80.2642 43.8245 79.4615 42.8168C78.6564 41.8114 78.2562 40.461 78.2562 38.7677V37.4978H80.5748V38.8966C80.5748 39.9157 80.7864 40.7002 81.2096 41.2524C81.6328 41.7999 82.2883 42.0714 83.1785 42.0714C84.0663 42.0714 84.7242 41.7999 85.1474 41.2524C85.5706 40.7002 85.7822 39.9157 85.7822 38.8966C85.7822 38.0683 85.5936 37.3551 85.221 36.7524C84.853 36.1519 84.393 35.5929 83.8409 35.0775C83.2935 34.5576 82.7024 34.0469 82.0652 33.5499C81.4327 33.0484 80.8416 32.5008 80.2895 31.9119C79.7375 31.3183 79.2729 30.6466 78.9003 29.8966C78.5322 29.142 78.3482 28.247 78.3482 27.2094C78.3482 25.4978 78.7485 24.145 79.5535 23.1512C80.3631 22.1527 81.6006 21.6512 83.2705 21.6512Z" fill="white"/>
</g>
<path d="M93.6562 44.1051V24.1266H89.562V21.872H100.225V24.1266H96.1312V44.1051H93.6562Z" fill="white"/>
<path d="M104.419 21.872V44.1051H101.944V21.872H104.419Z" fill="white"/>
<path d="M110.199 44.1051V24.1266H106.105V21.872H116.768V24.1266H112.674V44.1051H110.199Z" fill="white"/>
<path d="M120.833 38.8689C120.833 39.8812 121.037 40.6703 121.449 41.234C121.866 41.793 122.528 42.0714 123.437 42.0714C124.324 42.0714 124.975 41.793 125.387 41.234C125.803 40.6703 126.013 39.8812 126.013 38.8689V21.872H128.331V38.7401C128.331 40.4334 127.929 41.7953 127.126 42.826C126.321 43.8521 125.06 44.3628 123.345 44.3628C121.652 44.3628 120.403 43.8521 119.6 42.826C118.795 41.7953 118.395 40.4334 118.395 38.7401V21.872H120.833V38.8689Z" fill="white"/>
<path d="M134.013 44.1051V24.1266H129.919V21.872H140.582V24.1266H136.488V44.1051H134.013Z" fill="white"/>
<mask id="mask16_299_172" style="mask-type:luminance" maskUnits="userSpaceOnUse" x="141" y="21" width="12" height="24">
<path d="M141.92 21.214H152.519V44.7607H141.92V21.214Z" fill="white"/>
</mask>
<g mask="url(#mask16_299_172)">
<path d="M142.108 27.2462C142.108 25.53 142.524 24.168 143.359 23.1604C144.198 22.155 145.475 21.6512 147.186 21.6512C148.902 21.6512 150.186 22.155 151.032 23.1604C151.879 24.168 152.302 25.53 152.302 27.2462V38.7401C152.302 40.4334 151.879 41.7907 151.032 42.8076C150.186 43.8199 148.902 44.326 147.186 44.326C145.475 44.326 144.198 43.8199 143.359 42.8076C142.524 41.7907 142.108 40.4334 142.108 38.7401V27.2462ZM144.555 38.8689C144.555 39.8812 144.771 40.6703 145.208 41.234C145.643 41.793 146.303 42.0714 147.186 42.0714C148.099 42.0714 148.769 41.793 149.192 41.234C149.615 40.6703 149.827 39.8812 149.827 38.8689V27.1174C149.827 26.1005 149.615 25.3114 149.192 24.7524C148.769 24.1887 148.099 23.9058 147.186 23.9058C146.303 23.9058 145.643 24.1887 145.208 24.7524C144.771 25.3114 144.555 26.1005 144.555 27.1174V38.8689Z" fill="white"/>
</g>
<path d="M167.164 32.2248V34.4794H162.049V44.1051H159.574V21.872H168.397V24.1266H162.049V32.2248H167.164Z" fill="white"/>
<path d="M178.273 31.7186V33.9456H172.845V41.8505H179.515V44.1051H170.37V21.872H179.515V24.1266H172.845V31.7186H178.273Z" fill="white"/>
<path d="M187.008 21.872C188.742 21.872 190.019 22.3666 190.835 23.3536C191.65 24.336 192.059 25.6864 192.059 27.4027V38.6113C192.059 40.3298 191.65 41.6757 190.835 42.6512C190.019 43.622 188.742 44.1051 187.008 44.1051H181.801V21.872H187.008ZM186.98 41.8505C187.864 41.8505 188.522 41.5814 188.959 41.0407C189.393 40.5024 189.612 39.7225 189.612 38.7033V27.2738C189.612 26.257 189.393 25.4771 188.959 24.9364C188.522 24.3981 187.85 24.1266 186.944 24.1266H184.275V41.8505H186.98Z" fill="white"/>
<path d="M202.278 31.7186V33.9456H196.849V41.8505H203.52V44.1051H194.374V21.872H203.52V24.1266H196.849V31.7186H202.278Z" fill="white"/>
<path d="M210.755 21.872C212.515 21.872 213.782 22.3091 214.555 23.1788C215.328 24.0438 215.714 25.3022 215.714 26.9518V28.7646C215.714 29.9932 215.489 30.9893 215.043 31.7554C214.601 32.5169 213.904 33.0438 212.954 33.3383C213.966 33.6327 214.684 34.1803 215.107 34.9763C215.53 35.7677 215.742 36.7685 215.742 37.9763V41.4364C215.742 41.9219 215.762 42.3935 215.806 42.8536C215.848 43.3091 215.976 43.7255 216.193 44.1051H213.681C213.534 43.7877 213.426 43.4426 213.359 43.0745C213.297 42.7018 213.267 42.145 213.267 41.4088V37.9119C213.267 36.6604 212.984 35.7999 212.42 35.326C211.861 34.8475 211.063 34.6082 210.028 34.6082H208.28V44.1051H205.805V21.872H210.755ZM210.12 32.3536C211.119 32.3536 211.891 32.1489 212.439 31.737C212.991 31.3275 213.267 30.5177 213.267 29.3076V27.1818C213.267 26.165 213.069 25.4012 212.678 24.8904C212.285 24.382 211.622 24.1266 210.691 24.1266H208.28V32.3536H210.12Z" fill="white"/>
<path d="M220.827 39.6235L219.962 44.1051H217.681L221.931 21.872H225.52L229.779 44.1051H227.304L226.44 39.6235H220.827ZM221.14 37.4978H226.099L223.587 24.6696L221.14 37.4978Z" fill="white"/>
<path d="M231.715 44.1051V21.872H234.19V41.8505H240.538V44.1051H231.715Z" fill="white"/>
</g>
</svg>
